{"title":"The Bodyguard 1992 DVDrip English Klam","uid":7028113,"size":1972293826,"categoryP":"video","categoryS":"movies","magnet":"?xt=urn:btih:4191cb51543035cfca292e70222a673f9b3dddfd&amp;dn=The+Bodyguard+1992+DVDrip+English+Klam&amp;tr=udp%3A%2F%2Ftracker.openbittorrent.com%3A80&amp;tr=udp%3A%2F%2Fopen.demonii.com%3A1337&amp;tr=udp%3A%2F%2Ftracker.coppersurfer.tk%3A6969&amp;tr=udp%3A%2F%2Fexodus.desync.com%3A6969","seeders":1,"leechers":0,"uploader":"Klambake","files":-1,"time":1329094691,"description":"With: Kevin Costner, Whitney Houston and Gary Kemp\n\nFrank Farmer (Costner) is een voormalig medewerker van de Secret Service. Hij wordt ingehuurd om de populaire zangeres Rachel Marron (Houston) te beschermen, die wordt belaagd door een stalker. Zij is echter niet bereid om haar leventje enigszins aan te passen, dus Frank heeft zijn handen vol om alles in goede banen te leiden. Tussen de werkzaamheden door overtreedt Frank de belangrijkste regel van een bodyguard: wordt nooit verliefd.\n\nA former Secret Service agent takes on the job of bodyguard to a pop singer, whose lifestyle is most unlike a President\\'s. \n\n------------------------ Dutch Friends ------------------------\n---------------------------------------------------------------\n- Bezoek ook eens mijn vrienden op: &lt;a href=&quot; http://www.Film-Test.nl&quot; rel=&quot;nofollow&quot; target=&quot;_NEW&quot;&gt; http://www.Film-Test.nl&lt;/a&gt; --\n----- voor mijn Nederlandse Sync. ondertitels ---- en meer ----\n------- http://www.Film-Test.nl ---- voor Films en meer -------\n---------------------------------------------------------------\n\nGeneral:\n\nComplete name                    : The Bodyguard\\\\The Bodyguard.avi\nFormat                           : AVI\nFormat/Info                      : Audio Video Interleave\nFile size                        : 1.84 GiB\nDuration                         : 2h 4mn\nOverall bit rate                 : 2 120 Kbps\n\nVideo:\n\nFormat                           : MPEG-4 Visual\nFormat profile                   : Simple@L3\nFormat settings, BVOP            : No\nFormat settings, QPel            : No\nFormat settings, GMC             : No warppoints\nFormat settings, Matrix          : Default (H.263)\nCodec ID                         : XVID\nCodec ID/Hint                    : XviD\nDuration                         : 2h 4mn\nBit rate                         : 1 725 Kbps\nWidth                            : 652 pixels\nHeight                           : 352 pixels\nDisplay aspect ratio             : 1.852\nFrame rate                       : 25.000 fps\nColor space                      : YUV\nChroma subsampling               : 4:2:0\nBit depth                        : 8 bits\nScan type                        : Progressive\nCompression mode                 : Lossy\nBits/(Pixel*Frame)               : 0.301\nStream size                      : 1.49 GiB (81%)\nWriting library                  : XviD 1.1.2 (UTC 2006-11-01)\n\nAudio:\n\nFormat                           : AC-3\nFormat/Info                      : Audio Coding 3\nMode extension                   : CM (complete main)\nCodec ID                         : 2000\nDuration                         : 2h 4mn\nBit rate mode                    : Constant\nBit rate                         : 384 Kbps\nChannel(s)                       : 6 channels\nChannel positions                : Front: L C R, Side: L R, LFE\nSampling rate                    : 48.0 KHz\nBit depth                        : 16 bits\nCompression mode                 : Lossy\nStream size                      : 341 MiB (18%)\nAlignment                        : Aligned on interleaves\nInterleave, duration             : 32 ms (0.80 video frame)\nInterleave, preload duration     : 128 ms\n\n\n","torrent":{"xt":"urn:btih:4191cb51543035cfca292e70222a673f9b3dddfd","amp;dn":"The+Bodyguard+1992+DVDrip+English+Klam","amp;tr":["udp%3A%2F%2Ftracker.openbittorrent.com%3A80","udp%3A%2F%2Fopen.demonii.com%3A1337","udp%3A%2F%2Ftracker.coppersurfer.tk%3A6969","udp%3A%2F%2Fexodus.desync.com%3A6969"],"infoHash":"4191cb51543035cfca292e70222a673f9b3dddfd","infoHashBuffer":{"type":"Buffer","data":[65,145,203,81,84,48,53,207,202,41,46,112,34,42,103,63,155,61,221,253]},"announce":[],"urlList":[]}}